<svg xmlns="http://www.w3.org/2000/svg" viewBox="0 0 64.75 57.68"><defs><style>.cls-1{fill:#91ca9d;}.cls-2{fill:#363894;}</style></defs><g id="Warstwa_2" data-name="Warstwa 2"><g id="Warstwa_1-2" data-name="Warstwa 1"><path class="cls-1" d="M64.11,35.56a22.42,22.42,0,0,0-19.06-5.41,22.44,22.44,0,0,0,2.86-5.88l-1.66-.53,1.66.53A22.42,22.42,0,0,0,41.26.57L40.61,0l-.84.17a22.42,22.42,0,0,0-11,38.3L25.1,50.12l-1.86.64v3.69l5-1.72A22.44,22.44,0,0,0,49.6,56.45L49,54.8l.57,1.65A22.43,22.43,0,0,0,64.69,37l.06-.85ZM37.84,17.65,45,13.58c.07.3.14.6.19.91A18,18,0,0,1,45.46,17l-8.35,3.41ZM34.08,32.16l7.4-3A19.06,19.06,0,0,1,33.3,35.2Zm10.5-8.94c-.11.35-.23.69-.36,1l-9,3.69L36,24.66l9.13-3.73a19.15,19.15,0,0,1-.57,2.29Zm-.6-13L39.05,13l2-7.64A19.2,19.2,0,0,1,44,10.17Zm-18.5,15a18.73,18.73,0,0,1,.65-8.72A18.93,18.93,0,0,1,37.66,4.39l-7.8,30.17A19,19,0,0,1,25.48,25.19ZM35.5,39a19,19,0,0,1,24-2.59L30.58,48.07A19.07,19.07,0,0,1,35.5,39ZM32.12,51.21,35,50l6.83,4.15A19,19,0,0,1,32.12,51.21Zm16.34,1.94h0c-.34.12-.69.22-1,.32L39.06,48.4l3.15-1.27,8.43,5.12A19.16,19.16,0,0,1,48.46,53.15Zm7.4-4.67A18.16,18.16,0,0,1,54,50.17L46.24,45.5l2.68-1.09,7.56,3.37C56.28,48,56.08,48.25,55.86,48.48Zm2.73-3.58-5.17-2.31,7.31-3A19.21,19.21,0,0,1,58.59,44.9Z"/><path class="cls-2" d="M30.48,39.64A15.37,15.37,0,0,0,15.38,27a14.69,14.69,0,0,0-2.71.25A15.36,15.36,0,0,0,0,42.3,15.57,15.57,0,0,0,.24,45a15.35,15.35,0,0,0,15.1,12.67,15.66,15.66,0,0,0,2.71-.23,15.33,15.33,0,0,0,12.43-17.8ZM24,49.52a11.23,11.23,0,0,1-6.69,3.89,13.5,13.5,0,0,1-2,.18,11.3,11.3,0,0,1-11.07-9.3h0a11.11,11.11,0,0,1-.17-2,11.26,11.26,0,0,1,22.34-1.95,10.34,10.34,0,0,1,.18,2A11.3,11.3,0,0,1,24,49.52Z"/><path class="cls-2" d="M19.87,36.9l-1.34-.75-.14-1.53A2.43,2.43,0,0,0,16,32.44a2.35,2.35,0,0,0-1.63.65l-1.12,1-1.5-.33a2.48,2.48,0,0,0-.54-.06,2.38,2.38,0,0,0-1.71.73,2.42,2.42,0,0,0-.69,1.69,2.64,2.64,0,0,0,.22,1l.65,1.39-.78,1.31a2.54,2.54,0,0,0-.34,1.23A2.44,2.44,0,0,0,11,43.53a1.51,1.51,0,0,0,.3,0l1.51-.19,1,1.15a2.4,2.4,0,0,0,3.3.3A2.33,2.33,0,0,0,18,43.34l.29-1.5,1.41-.62a2.43,2.43,0,0,0,1.09-.93A2.46,2.46,0,0,0,21.11,39a2.4,2.4,0,0,0-.31-1.19A2.23,2.23,0,0,0,19.87,36.9ZM17,39.39a2.42,2.42,0,0,0-1.4,1.76l-.21,1-.7-.79a2.42,2.42,0,0,0-1.81-.82,1.46,1.46,0,0,0-.29,0l-1.06.12.54-.91a2.34,2.34,0,0,0,.34-1.22,2.53,2.53,0,0,0-.22-1h0l-.45-1,1,.23a2.31,2.31,0,0,0,.52.06A2.42,2.42,0,0,0,15,36.24h0l.77-.72.1,1a2.46,2.46,0,0,0,1.23,1.89L18,39Z"/></g></g></svg>