<svg xmlns="http://www.w3.org/2000/svg" viewBox="0 0 292 285.97"><defs><style>.cls-1{fill:#91ca9d;}</style></defs><g id="Warstwa_2" data-name="Warstwa 2"><g id="Warstwa_1-2" data-name="Warstwa 1"><path class="cls-1" d="M214.22,192.67l-2.73-.62a.42.42,0,0,0-.41.11L209,194.05a.46.46,0,0,1-.77-.3L208,191a.49.49,0,0,0-.23-.36l-2.44-1.37a.46.46,0,0,1,0-.82l2.56-1.1a.45.45,0,0,0,.27-.33l.55-2.74a.46.46,0,0,1,.8-.21l1.84,2.1a.47.47,0,0,0,.4.16l2.77-.33a.46.46,0,0,1,.45.69l-1.43,2.4a.47.47,0,0,0,0,.43l1.17,2.54A.46.46,0,0,1,214.22,192.67Z"/><path class="cls-1" d="M208.72,194.67a.84.84,0,0,1-.35-.07,1,1,0,0,1-.61-.8l-.25-2.79-2.41-1.33a1,1,0,0,1-.49-.89.94.94,0,0,1,.58-.83l2.57-1.1.52-2.71a1,1,0,0,1,1.67-.44l1.83,2.1,2.74-.33a1,1,0,0,1,.92.43,1,1,0,0,1,0,1l-1.44,2.4,1.17,2.5a.94.94,0,0,1-.13,1,.91.91,0,0,1-.95.33h0l-2.73-.62-2,1.89A1,1,0,0,1,208.72,194.67Zm.47-10.3-.48,2.72a.94.94,0,0,1-.56.69l-2.57,1.1,2.44,1.3a.94.94,0,0,1,.49.74l.25,2.79,2-1.92a1,1,0,0,1,.87-.23l2.67.61-1.16-2.47a1,1,0,0,1,0-.9l1.43-2.39-2.74.38a.93.93,0,0,1-.83-.32Z"/><path class="cls-1" d="M14,73.12l-2.72-.62a.5.5,0,0,0-.42.11L8.84,74.5a.46.46,0,0,1-.77-.29l-.25-2.78a.45.45,0,0,0-.23-.36L5.15,69.7a.46.46,0,0,1,0-.82l2.57-1.1A.46.46,0,0,0,8,67.45l.56-2.74a.45.45,0,0,1,.79-.21l1.84,2.1a.46.46,0,0,0,.4.15l2.77-.32a.46.46,0,0,1,.45.69l-1.43,2.4a.47.47,0,0,0,0,.43l1.17,2.53A.46.46,0,0,1,14,73.12Z"/><path class="cls-1" d="M8.53,75.13a1.09,1.09,0,0,1-.35-.07,1,1,0,0,1-.61-.81l-.25-2.78L4.91,70.13a1,1,0,0,1-.49-.88A.94.94,0,0,1,5,68.42l2.57-1.1.52-2.71a1,1,0,0,1,1.67-.44l1.84,2.1,2.73-.34a1,1,0,0,1,.92.44.94.94,0,0,1,0,1l-1.43,2.39L15,72.28a.94.94,0,0,1-.12,1,1,1,0,0,1-1,.33L11.2,73l-2,1.88A.94.94,0,0,1,8.53,75.13ZM9,64.83l-.48,2.71a1,1,0,0,1-.56.7L5.4,69.34l2.43,1.29a1,1,0,0,1,.49.75l.25,2.78,2-1.92a1,1,0,0,1,.86-.23l2.67.61-1.16-2.47a1,1,0,0,1,.05-.89l1.43-2.4-2.73.39a1,1,0,0,1-.84-.32Z"/><path class="cls-1" d="M214.44,9.55l-2.72-.62a.47.47,0,0,0-.41.11l-2.06,1.9a.46.46,0,0,1-.77-.3l-.25-2.78A.45.45,0,0,0,208,7.5l-2.43-1.37a.45.45,0,0,1,0-.82l2.57-1.1a.45.45,0,0,0,.27-.33L209,1.14a.45.45,0,0,1,.79-.21L211.63,3a.46.46,0,0,0,.4.15l2.77-.32a.46.46,0,0,1,.45.69L213.82,6a.44.44,0,0,0,0,.43L215,8.92A.45.45,0,0,1,214.44,9.55Z"/><path class="cls-1" d="M208.94,11.56a.83.83,0,0,1-.34-.07.93.93,0,0,1-.61-.81l-.26-2.78-2.41-1.33a1,1,0,0,1,.09-1.72L208,3.75,208.51,1A1,1,0,0,1,210.17.6L212,2.7l2.74-.34a1,1,0,0,1,.91.44.94.94,0,0,1,0,1l-1.43,2.4,1.17,2.5A1,1,0,0,1,214.33,10h0l-2.72-.62-2,1.88A.94.94,0,0,1,208.94,11.56Zm.48-10.3L208.94,4a1,1,0,0,1-.57.69l-2.56,1.1,2.44,1.29a1,1,0,0,1,.48.75l.25,2.78,2-1.91a.91.91,0,0,1,.86-.23l2.67.6-1.16-2.47a1,1,0,0,1,0-.89l1.43-2.39-2.73.38a1,1,0,0,1-.84-.32Z"/><path class="cls-1" d="M173.55,62.29l-2.73-.62a.48.48,0,0,0-.41.11l-2,1.89a.46.46,0,0,1-.77-.29l-.25-2.78a.47.47,0,0,0-.23-.36l-2.44-1.37a.46.46,0,0,1,.05-.82l2.56-1.1a.47.47,0,0,0,.27-.33l.55-2.74a.46.46,0,0,1,.8-.21l1.84,2.1a.46.46,0,0,0,.4.15l2.77-.32a.46.46,0,0,1,.45.69l-1.43,2.4a.45.45,0,0,0,0,.42l1.17,2.54A.46.46,0,0,1,173.55,62.29Z"/><path class="cls-1" d="M168.05,64.3a1.09,1.09,0,0,1-.35-.07,1,1,0,0,1-.61-.81l-.25-2.78-2.41-1.34a1,1,0,0,1-.49-.88.94.94,0,0,1,.58-.83l2.57-1.1.52-2.71a1,1,0,0,1,.7-.74,1,1,0,0,1,1,.3l1.84,2.1,2.74-.34a1,1,0,0,1,.92.43,1,1,0,0,1,0,1l-1.44,2.39,1.17,2.51a1,1,0,0,1-1.08,1.33l-2.73-.62-2,1.88A1,1,0,0,1,168.05,64.3Zm.47-10.3L168,56.71a1,1,0,0,1-.56.7l-2.57,1.1,2.44,1.29a1,1,0,0,1,.49.75l.25,2.78,2-1.92a1,1,0,0,1,.86-.23l2.68.61-1.16-2.47a.94.94,0,0,1,.05-.89l1.43-2.4-2.74.39a1,1,0,0,1-.83-.32Z"/><path class="cls-1" d="M271.3,284l-2.72-.62a.47.47,0,0,0-.41.11l-2.06,1.89a.46.46,0,0,1-.77-.29l-.25-2.78a.43.43,0,0,0-.23-.36l-2.43-1.37a.45.45,0,0,1,0-.82l2.57-1.1a.47.47,0,0,0,.27-.33l.55-2.74a.45.45,0,0,1,.79-.21l1.84,2.1a.46.46,0,0,0,.4.15l2.77-.32a.46.46,0,0,1,.45.69l-1.43,2.4a.42.42,0,0,0,0,.42l1.16,2.54A.46.46,0,0,1,271.3,284Z"/><path class="cls-1" d="M265.8,286a1,1,0,0,1-.34-.06.93.93,0,0,1-.61-.81l-.26-2.78L262.18,281a1,1,0,0,1,.09-1.71l2.57-1.1.53-2.71a1,1,0,0,1,.69-.74.94.94,0,0,1,1,.3l1.84,2.1,2.74-.34a.94.94,0,0,1,.91.43,1,1,0,0,1,0,1l-1.43,2.39,1.17,2.5a1,1,0,0,1-1.09,1.34h0l-2.72-.62-2,1.88A.93.93,0,0,1,265.8,286Zm.48-10.3-.48,2.72a1,1,0,0,1-.57.7l-2.56,1.1,2.43,1.29a1,1,0,0,1,.49.75l.25,2.78,2-1.92a1,1,0,0,1,.86-.23l2.67.61L270.2,281a1,1,0,0,1,.05-.89l1.43-2.4-2.73.39a1,1,0,0,1-.84-.32Z"/><path class="cls-1" d="M127.9,205.6l-2.73-.62a.48.48,0,0,0-.41.11l-2.05,1.9a.46.46,0,0,1-.77-.3l-.25-2.78a.46.46,0,0,0-.24-.36L119,202.18a.46.46,0,0,1,0-.82l2.57-1.1a.45.45,0,0,0,.27-.33l.55-2.74a.46.46,0,0,1,.8-.21l1.84,2.1a.44.44,0,0,0,.39.15l2.78-.32a.46.46,0,0,1,.45.69l-1.44,2.4a.5.5,0,0,0,0,.43l1.17,2.54A.46.46,0,0,1,127.9,205.6Z"/><path class="cls-1" d="M122.4,207.61a.84.84,0,0,1-.35-.07,1,1,0,0,1-.61-.8l-.25-2.79-2.41-1.33a1,1,0,0,1,.09-1.72l2.57-1.1.52-2.71a1,1,0,0,1,.7-.74,1,1,0,0,1,1,.3l1.84,2.1,2.74-.33a1,1,0,0,1,.92.43.94.94,0,0,1,0,1l-1.43,2.4,1.17,2.5a1,1,0,0,1-.13,1,.94.94,0,0,1-1,.33l-2.73-.62-2,1.88A.93.93,0,0,1,122.4,207.61Zm.47-10.3-.48,2.72a1,1,0,0,1-.56.69l-2.57,1.1,2.44,1.29a.94.94,0,0,1,.48.75l.26,2.79,2-1.92a.91.91,0,0,1,.86-.23l2.67.6-1.15-2.46a1,1,0,0,1,0-.9l1.43-2.39-2.74.38a1,1,0,0,1-.83-.32Z"/><path class="cls-1" d="M169.31,270.47l-2.73-.62a.48.48,0,0,0-.41.11l-2,1.89a.46.46,0,0,1-.77-.29l-.25-2.78a.46.46,0,0,0-.24-.36l-2.43-1.37a.46.46,0,0,1,0-.82l2.56-1.1a.47.47,0,0,0,.27-.33l.55-2.74a.46.46,0,0,1,.8-.21l1.84,2.1a.44.44,0,0,0,.39.15l2.78-.32a.46.46,0,0,1,.45.69l-1.44,2.4a.48.48,0,0,0,0,.42l1.17,2.54A.46.46,0,0,1,169.31,270.47Z"/><path class="cls-1" d="M163.81,272.48a1,1,0,0,1-.35-.07,1,1,0,0,1-.61-.81l-.25-2.78-2.41-1.34a1,1,0,0,1,.09-1.71l2.57-1.1.52-2.71a1,1,0,0,1,.7-.74.93.93,0,0,1,1,.3l1.84,2.1,2.74-.34a1,1,0,0,1,.92.43,1,1,0,0,1,0,1l-1.43,2.39,1.17,2.5a1,1,0,0,1-.13,1,.94.94,0,0,1-1,.33l-2.72-.62-2,1.88A1,1,0,0,1,163.81,272.48Zm.47-10.31-.48,2.72a1,1,0,0,1-.56.7l-2.57,1.1,2.44,1.29a1,1,0,0,1,.48.75l.26,2.78,2-1.92a1,1,0,0,1,.87-.22l2.66.6-1.15-2.47a1,1,0,0,1,0-.89l1.44-2.4-2.74.39a1,1,0,0,1-.83-.32Zm5.14,7.81Z"/><path class="cls-1" d="M67.62,269.22l-2.72-.62a.47.47,0,0,0-.41.11l-2.06,1.89a.46.46,0,0,1-.77-.29l-.25-2.78a.45.45,0,0,0-.23-.36l-2.43-1.37a.46.46,0,0,1,0-.82l2.57-1.1a.47.47,0,0,0,.27-.33l.55-2.74a.45.45,0,0,1,.79-.21l1.84,2.1a.46.46,0,0,0,.4.15l2.77-.32a.46.46,0,0,1,.45.69L67,265.62a.42.42,0,0,0,0,.42l1.16,2.54A.46.46,0,0,1,67.62,269.22Z"/><path class="cls-1" d="M62.12,271.23a1,1,0,0,1-.34-.07.93.93,0,0,1-.61-.81l-.26-2.78-2.41-1.34a1,1,0,0,1,.09-1.71l2.57-1.1.53-2.71a1,1,0,0,1,1.66-.44l1.84,2.1,2.74-.34a1,1,0,0,1,.93,1.45l-1.43,2.39,1.17,2.51a1,1,0,0,1-.13,1,1,1,0,0,1-1,.33h0l-2.72-.62-2,1.88A.94.94,0,0,1,62.12,271.23Zm.48-10.31-.48,2.72a1,1,0,0,1-.56.7L59,265.44l2.44,1.29a1,1,0,0,1,.48.75l.25,2.78,2-1.92a1,1,0,0,1,.86-.23l2.67.61-1.16-2.47a1,1,0,0,1,0-.89L68,263l-2.73.39a1,1,0,0,1-.83-.32Z"/><circle class="cls-1" cx="83.75" cy="104.75" r="3.25"/><path class="cls-1" d="M83.75,108.5a3.75,3.75,0,1,1,3.75-3.75A3.75,3.75,0,0,1,83.75,108.5Zm0-6.5a2.75,2.75,0,1,0,2.75,2.75A2.75,2.75,0,0,0,83.75,102Z"/><circle class="cls-1" cx="263.75" cy="77.75" r="3.25"/><path class="cls-1" d="M263.75,81.5a3.75,3.75,0,1,1,3.75-3.75A3.75,3.75,0,0,1,263.75,81.5Zm0-6.5a2.75,2.75,0,1,0,2.75,2.75A2.75,2.75,0,0,0,263.75,75Z"/><circle class="cls-1" cx="6.75" cy="3.75" r="3.25"/><path class="cls-1" d="M6.75,7.5A3.75,3.75,0,1,1,10.5,3.75,3.75,3.75,0,0,1,6.75,7.5Zm0-6.5A2.75,2.75,0,1,0,9.5,3.75,2.75,2.75,0,0,0,6.75,1Z"/><circle class="cls-1" cx="3.75" cy="221.75" r="3.25"/><path class="cls-1" d="M3.75,225.5a3.75,3.75,0,1,1,3.75-3.75A3.75,3.75,0,0,1,3.75,225.5Zm0-6.5a2.75,2.75,0,1,0,2.75,2.75A2.75,2.75,0,0,0,3.75,219Z"/><circle class="cls-1" cx="262.75" cy="212.75" r="3.25"/><path class="cls-1" d="M262.75,216.5a3.75,3.75,0,1,1,3.75-3.75A3.75,3.75,0,0,1,262.75,216.5Zm0-6.5a2.75,2.75,0,1,0,2.75,2.75A2.75,2.75,0,0,0,262.75,210Z"/><path class="cls-1" d="M279,188H234V150.75a21.1,21.1,0,0,1,15-20.31V107h15v23.44a21.1,21.1,0,0,1,15,20.31Zm-41-4h37V150.75a17.34,17.34,0,0,0-13.44-16.82l-1.56-.35V111h-7v22.58l-1.56.35A17.34,17.34,0,0,0,238,150.75Z"/><path class="cls-1" d="M261.83,111H251V94.67h10.83ZM255,107h2.83V98.67H255Z"/><path class="cls-1" d="M246.75,159.33a15.66,15.66,0,0,1-4.91-.82,20.37,20.37,0,0,1-7.25-4.34l2.82-2.84c.36.36,9.11,8.74,17.84,0,3.43-3.43,7.21-5.16,11.26-5.16h.09c6.74,0,11.63,5,11.83,5.17l-2.86,2.8s-4-4-9-4h0c-2.95,0-5.78,1.34-8.43,4C254.14,158.1,250.17,159.33,246.75,159.33Z"/><path class="cls-1" d="M266,162.5a1.5,1.5,0,0,0,0-3,1.5,1.5,0,0,0,0,3Z"/><path class="cls-1" d="M268,157.17a1.5,1.5,0,0,0,0-3,1.5,1.5,0,0,0,0,3Z"/><path class="cls-1" d="M271,160.83a1.5,1.5,0,0,0,0-3,1.5,1.5,0,0,0,0,3Z"/><path class="cls-1" d="M176.81,120l8.27-9.94,1.55,1.55a17,17,0,0,1,2.68,3.44l1.94,3.3-3.81-.29a14.66,14.66,0,0,0-4.63.4Z"/><path class="cls-1" d="M194.85,172H92.15l-.53-1.19A41.69,41.69,0,0,1,88,154.25c0-24.06,24.9-43.63,55.5-43.63a71.54,71.54,0,0,1,18.41,2.11,17.1,17.1,0,0,1,12.76-5.9,16.85,16.85,0,0,1,6.58,1.25A16.57,16.57,0,0,1,186,111a1.29,1.29,0,0,1,.17.16,6.17,6.17,0,0,1,.46.43l1.3,1.29L187,114l.74,0a18.33,18.33,0,0,1,16.93,18.27,18.4,18.4,0,0,1-6.38,13.89,47.57,47.57,0,0,1,.71,8,41.69,41.69,0,0,1-3.62,16.56ZM94.77,168h97.46A37.44,37.44,0,0,0,195,154.25a41,41,0,0,0-.86-8.34l-.32-1.29,1.07-.8A14.3,14.3,0,0,0,199,125.63,14.31,14.31,0,0,0,187.44,118a14.59,14.59,0,0,0-4.63.42l-7.26,1.86,5.31-5.18,1.56-1.86a13.18,13.18,0,0,0-2.7-1.51,12.91,12.91,0,0,0-5.05-.94,13.14,13.14,0,0,0-10.43,5.38l-.83,1.11-1.33-.39a66,66,0,0,0-18.58-2.31c-28.4,0-51.5,17.78-51.5,39.63A37.44,37.44,0,0,0,94.77,168Z"/><path class="cls-1" d="M200.39,128.27,199,125.62a14.26,14.26,0,0,0-3.14-4l-1.44-1.28,12.41-14.93A8.76,8.76,0,0,1,202.75,98a8.77,8.77,0,0,1,8.13-8.73l.62,0a8.77,8.77,0,0,1,8.58,7h.42a8.75,8.75,0,1,1-6,15.09ZM199.9,120c.38.42.74.85,1.08,1.3l13.92-16.74,1.39,2.65a4.75,4.75,0,1,0,4.21-7,4.47,4.47,0,0,0-1.59.28l-3,1.09.3-3.16c0-.15,0-.3,0-.46a4.75,4.75,0,0,0-4.75-4.75l-.36,0A4.74,4.74,0,0,0,206.75,98a4.85,4.85,0,0,0,.16,1.24,4.74,4.74,0,0,0,3.6,3.4l3.26.68Z"/><path class="cls-1" d="M184.52,116.12l-1.6-2.64a13.8,13.8,0,0,0-3.06-3.85l-1.45-1.29L190.84,93.4a8.75,8.75,0,1,1,13.24-9.14,8.77,8.77,0,0,1,8.87,6.5l.62,2.34-2.41.16A4.76,4.76,0,0,0,206.75,98a4.85,4.85,0,0,0,.16,1.24l.59,2.33-2.4.16-.6,0a8.72,8.72,0,0,1-6-2.41ZM183,113.58Zm.92-5.58c.38.42.74.85,1.08,1.3L198.9,92.56l1.39,2.65a4.75,4.75,0,0,0,2.48,2.22,8.79,8.79,0,0,1,5.35-7.5,4.74,4.74,0,0,0-3.62-1.68,4.47,4.47,0,0,0-1.59.28l-3,1.09.3-3.16c0-.15,0-.3,0-.46a4.75,4.75,0,1,0-5.74,4.64l3.25.68Z"/><path class="cls-1" d="M151.56,157H114.19l0-2a18.64,18.64,0,0,1,37.27,0Zm-33.14-4h28.91a14.65,14.65,0,0,0-28.91,0Z"/><path class="cls-1" d="M188.67,29H83A20.69,20.69,0,0,1,62.33,8.33v-2H188.67ZM66.45,10.33A16.7,16.7,0,0,0,83,25H184.67V10.33Z"/><rect class="cls-1" x="146" y="8" width="4" height="19"/><path class="cls-1" d="M161.25,23.67A5.75,5.75,0,1,1,167,17.92,5.76,5.76,0,0,1,161.25,23.67Zm0-7.5A1.75,1.75,0,1,0,163,17.92,1.75,1.75,0,0,0,161.25,16.17Z"/><path class="cls-1" d="M176.25,23.67A5.75,5.75,0,1,1,182,17.92,5.76,5.76,0,0,1,176.25,23.67Zm0-7.5A1.75,1.75,0,1,0,178,17.92,1.75,1.75,0,0,0,176.25,16.17Z"/><rect class="cls-1" x="85" y="16" width="62" height="4"/><path class="cls-1" d="M235.52,70.5A26.34,26.34,0,0,1,215.19,61l-.08-.09a26.43,26.43,0,0,1,15.12-42.67,21.12,21.12,0,0,1,39.87,8.65c0,.31,0,.66,0,1a21.13,21.13,0,0,1-8.2,16.71A26.38,26.38,0,0,1,235.52,70.5ZM218.14,58.25l.08.08a22.41,22.41,0,0,0,39.72-14.25c0-.15,0-.3,0-.44l0-1.1.9-.63a17.12,17.12,0,0,0,7.34-14c0-.27,0-.53,0-.8a17.12,17.12,0,0,0-32.7-6.26l-.45,1-1.05.17a22.43,22.43,0,0,0-13.77,36.3Z"/><path class="cls-1" d="M234.15,58.72a13.62,13.62,0,1,1,11.65-6.58A13.63,13.63,0,0,1,234.15,58.72Zm0-23.23a9.62,9.62,0,1,0,8.23,14.58,9.49,9.49,0,0,0,1.38-5A9.63,9.63,0,0,0,234.15,35.49Z"/><path class="cls-1" d="M242.77,69.47l-.85-3.9a22.55,22.55,0,0,0,16-21.49c0-.15,0-.3,0-.44l0-1.1.9-.63a17.12,17.12,0,0,0,7.34-14v-2h2c1.77,0,2,1.26,2.67,4.62a33.76,33.76,0,0,1,.69,5.76A33.75,33.75,0,0,1,242.77,69.47Zm19.16-24.9A26.42,26.42,0,0,1,258,57.92a29.7,29.7,0,0,0,9.44-19.73A21.22,21.22,0,0,1,261.93,44.57Z"/><path class="cls-1" d="M25.8,20.09h-.27a4.23,4.23,0,0,1-1.86-.52,5.29,5.29,0,0,1-2.51-4.74,11.72,11.72,0,0,1,1.52-5.73,11.57,11.57,0,0,1,4-4.38A5.25,5.25,0,0,1,32,4.23c1.83,1,2.75,3.19,2.47,5.89A12.32,12.32,0,0,1,33,14.7h0C31.21,18,28.41,20.09,25.8,20.09ZM29.88,7.7a2.42,2.42,0,0,0-1.13.41A8,8,0,0,0,26.19,11a7.83,7.83,0,0,0-1,3.72c0,.77.23,1.23.42,1.33a.27.27,0,0,0,.15,0c.79.06,2.49-1,3.76-3.29h0a8.43,8.43,0,0,0,1-3.07c.12-1.22-.18-1.86-.4-2A.56.56,0,0,0,29.88,7.7Z"/><path class="cls-1" d="M28.58,21.22a5.54,5.54,0,0,1-4.52-1.91l-2.7-3.47,4.4.25c.77.05,2.46-1,3.73-3.3a8.43,8.43,0,0,0,1-3.07l.14-1.46L32.06,8c3.07-.65,5.68.19,6.82,2.18,1.66,2.91-.34,7-4.66,9.44h0A11.63,11.63,0,0,1,28.58,21.22Zm5.6-9.48a13.25,13.25,0,0,1-1.18,3,14.87,14.87,0,0,1-.94,1.51l.18-.1c2.66-1.53,3.44-3.51,3.17-4C35.3,11.94,34.87,11.76,34.18,11.74Z"/><path class="cls-1" d="M21.61,52.1a17.29,17.29,0,1,1,4.62-34A17,17,0,0,1,45.62,42.63h0a17,17,0,0,1-18.39,8.52A17.27,17.27,0,0,1,21.61,52.1Zm0-30.59a13.29,13.29,0,1,0,4.76,25.7L27,47l.61.15a13,13,0,0,0,14.53-6.41h0A13,13,0,0,0,26.82,22.14l-.6.19-.6-.19A13,13,0,0,0,21.62,21.51Z"/><path class="cls-1" d="M116.63,80a8.06,8.06,0,0,1-.4-16.12l2-.09.44,16.2h-2.08ZM114.4,68.49A4.09,4.09,0,0,0,112.56,72h0a4.08,4.08,0,0,0,2,3.4Z"/><path class="cls-1" d="M106.32,75.45a8.06,8.06,0,0,1-.39-16.12l2-.1.44,16.21h-2.09ZM104.1,64a4.06,4.06,0,0,0-1.84,3.5h0a4.08,4.08,0,0,0,2,3.4Z"/><path class="cls-1" d="M72.21,83.83,71.09,53.49l2,0A15.2,15.2,0,0,1,88.5,68h0A15.23,15.23,0,0,1,74.25,83.71Zm3-26.21.8,21.78a11.23,11.23,0,0,0,8.46-11.22h0A11.21,11.21,0,0,0,75.25,57.62Z"/><path class="cls-1" d="M117.72,87.17A35.6,35.6,0,0,1,86.53,68.8L86,67.89l.46-.93a35.67,35.67,0,0,1,63.32-1.75l.51.91-.46.94a35.63,35.63,0,0,1-31.13,20.1h-1ZM90.55,67.77a31.62,31.62,0,0,0,28.06,15.39h0a31.6,31.6,0,0,0,27.17-16.92,31.68,31.68,0,0,0-55.23,1.53Z"/><path class="cls-1" d="M117.72,87.17A35.6,35.6,0,0,1,86.53,68.8L86,67.89l.46-.93a35.67,35.67,0,0,1,63.32-1.75l.51.91-.46.94a35.63,35.63,0,0,1-31.13,20.1h-1ZM90.55,67.77a31.62,31.62,0,0,0,28.06,15.39h0a31.6,31.6,0,0,0,27.17-16.92,31.68,31.68,0,0,0-55.23,1.53Z"/><path class="cls-1" d="M129.92,85.07l-.93-.83a24.27,24.27,0,0,1-8.08-17.36,23.86,23.86,0,0,1,7-17.7l.88-.88,1.18.4A35.65,35.65,0,0,1,149.8,65.21l.51.91-.46.94A35.68,35.68,0,0,1,131.07,84.6Zm0-32.15a20.1,20.1,0,0,0,.82,27.47,31.7,31.7,0,0,0,15-14.15A31.61,31.61,0,0,0,129.93,52.92Z"/><path class="cls-1" d="M117.72,87.17A35.6,35.6,0,0,1,86.53,68.8L86,67.89l.46-.93a35.57,35.57,0,0,1,31.13-20.12h0A35.64,35.64,0,0,1,149.8,65.21l.51.91-.46.94a35.63,35.63,0,0,1-31.13,20.1ZM90.55,67.77a31.68,31.68,0,0,0,55.23-1.53,31.6,31.6,0,0,0-28.06-15.4h0A31.58,31.58,0,0,0,90.55,67.77Z"/><path class="cls-1" d="M117.72,87.17A35.6,35.6,0,0,1,86.53,68.8L86,67.89l.46-.93a35.67,35.67,0,0,1,63.32-1.75l.51.91-.46.94a35.63,35.63,0,0,1-31.13,20.1h-1ZM90.55,67.77a31.62,31.62,0,0,0,28.06,15.39h0a31.6,31.6,0,0,0,27.17-16.92,31.68,31.68,0,0,0-55.23,1.53Z"/><path class="cls-1" d="M249,261H223V234h49v4.33A22.59,22.59,0,0,1,249,261Zm-22-4h22a18.64,18.64,0,0,0,19-18.67V238H227Z"/><path class="cls-1" d="M227,261H200v-6.5A20.53,20.53,0,0,1,220.5,234H227Zm-23-4h19V238h-2.5A16.52,16.52,0,0,0,204,254.5Z"/><path class="cls-1" d="M227,282h-3.5c-12.74,0-23.5-10.53-23.5-23v-2h27Zm-22.89-21A19.62,19.62,0,0,0,223,278V261Z"/><path class="cls-1" d="M248,282H223.5c-12.74,0-23.5-10.53-23.5-23v-2h25.17a23.68,23.68,0,0,1,4.85.49c10.58,2.07,18,10.4,18,20.26Zm-43.89-21a19.63,19.63,0,0,0,19.39,17H244v-.25c0-7.92-6.07-14.64-14.76-16.34a19.86,19.86,0,0,0-4.07-.41Z"/><path class="cls-1" d="M248,282H223.5c-12.74,0-23.5-10.53-23.5-23v-2h23V234h49v4.33A22.59,22.59,0,0,1,249,261H238.7a20.06,20.06,0,0,1,9.3,16.75Zm-43.89-21a19.63,19.63,0,0,0,19.39,17H244v-.25c0-7.92-6.07-14.64-14.76-16.34a19.86,19.86,0,0,0-4.07-.41ZM227,257h22a18.64,18.64,0,0,0,19-18.67V238H227Z"/><path class="cls-1" d="M254.62,250a5.38,5.38,0,1,1,5.38-5.38A5.38,5.38,0,0,1,254.62,250Zm0-6.75a1.38,1.38,0,1,0,1.38,1.37A1.38,1.38,0,0,0,254.62,243.25Z"/><rect class="cls-1" x="270" y="234" width="22" height="4"/><path class="cls-1" d="M75.75,214.5H24.25a15.25,15.25,0,0,1,0-30.5h51.5a15.25,15.25,0,0,1,0,30.5ZM24.25,188a11.25,11.25,0,0,0,0,22.5h51.5a11.25,11.25,0,0,0,0-22.5Z"/><rect class="cls-1" x="63.9" y="191.25" width="15.21" height="4" transform="translate(-132.97 167.74) rotate(-62.58)"/><rect class="cls-1" x="21.9" y="190.25" width="15.21" height="4" transform="translate(-154.74 129.92) rotate(-62.58)"/><rect class="cls-1" x="42.9" y="191.25" width="15.21" height="4" transform="translate(-144.3 149.1) rotate(-62.58)"/><path class="cls-1" d="M62.31,155H3.69l9.58-67H52.73Zm-54-4H57.69L49.27,92H16.73Z"/><path class="cls-1" d="M49.6,92H16.23l-1.6-2.5L23.86,75H42L51.2,89.5ZM20.33,88H45.5l-5.73-9H26.06Z"/><path class="cls-1" d="M28,111.38a6.25,6.25,0,1,1,6.25-6.26A6.26,6.26,0,0,1,28,111.38Zm0-8.5a2.25,2.25,0,1,0,2.25,2.24A2.24,2.24,0,0,0,28,102.88Z"/><path class="cls-1" d="M38,111.38a6.25,6.25,0,1,1,6.25-6.26A6.26,6.26,0,0,1,38,111.38Zm0-8.5a2.25,2.25,0,1,0,2.25,2.24A2.24,2.24,0,0,0,38,102.88Z"/><path class="cls-1" d="M23,127.38a6.25,6.25,0,1,1,6.25-6.26A6.26,6.26,0,0,1,23,127.38Zm0-8.5a2.25,2.25,0,1,0,2.25,2.24A2.24,2.24,0,0,0,23,118.88Z"/><path class="cls-1" d="M33,127.38a6.25,6.25,0,1,1,6.25-6.26A6.26,6.26,0,0,1,33,127.38Zm0-8.5a2.25,2.25,0,1,0,2.25,2.24A2.24,2.24,0,0,0,33,118.88Z"/><path class="cls-1" d="M42,127.38a6.25,6.25,0,1,1,6.25-6.26A6.26,6.26,0,0,1,42,127.38Zm0-8.5a2.25,2.25,0,1,0,2.25,2.24A2.24,2.24,0,0,0,42,118.88Z"/><path class="cls-1" d="M19,145.38a6.25,6.25,0,1,1,6.25-6.26A6.26,6.26,0,0,1,19,145.38Zm0-8.5a2.25,2.25,0,1,0,2.25,2.24A2.24,2.24,0,0,0,19,136.88Z"/><path class="cls-1" d="M29,145.38a6.25,6.25,0,1,1,6.25-6.26A6.26,6.26,0,0,1,29,145.38Zm0-8.5a2.25,2.25,0,1,0,2.25,2.24A2.24,2.24,0,0,0,29,136.88Z"/><path class="cls-1" d="M38,145.38a6.25,6.25,0,1,1,6.25-6.26A6.26,6.26,0,0,1,38,145.38Zm0-8.5a2.25,2.25,0,1,0,2.25,2.24A2.24,2.24,0,0,0,38,136.88Z"/><path class="cls-1" d="M48,145.38a6.25,6.25,0,1,1,6.25-6.26A6.26,6.26,0,0,1,48,145.38Zm0-8.5a2.25,2.25,0,1,0,2.25,2.24A2.24,2.24,0,0,0,48,136.88Z"/><path class="cls-1" d="M164,235.15l-.63-.76a25.75,25.75,0,0,1,18.77-42.19l1,0,.64.76a25.72,25.72,0,0,1,3.2,28h0a25.72,25.72,0,0,1-22,14.16Zm17.3-38.89a21.74,21.74,0,0,0-15.47,34.79,21.74,21.74,0,0,0,15.47-34.79Z"/><polygon class="cls-1" points="159.28 249.29 155.71 247.49 163.32 232.35 180.39 193.4 184.05 195 166.92 234.1 159.28 249.29"/><rect class="cls-1" x="171.29" y="213.81" width="16.04" height="4" transform="translate(-44.15 46.12) rotate(-13.07)"/><rect class="cls-1" x="168.29" y="221.81" width="16.04" height="4" transform="translate(-46.03 45.65) rotate(-13.07)"/><rect class="cls-1" x="175.22" y="205.81" width="12.18" height="4" transform="translate(-60.8 75.74) rotate(-20.28)"/><path class="cls-1" d="M100.47,278.59a22.14,22.14,0,1,1,22.13-22.14A22.15,22.15,0,0,1,100.47,278.59Zm0-40.27a18.14,18.14,0,1,0,18.13,18.13A18.15,18.15,0,0,0,100.47,238.32Z"/><path class="cls-1" d="M105.25,283.92a27.25,27.25,0,1,1,27.25-27.25A27.28,27.28,0,0,1,105.25,283.92Zm0-50.5a23.25,23.25,0,1,0,23.25,23.25A23.28,23.28,0,0,0,105.25,233.42Z"/><rect class="cls-1" x="79.92" y="254.79" width="40.94" height="4" transform="translate(-156.79 356.17) rotate(-89.78)"/><rect class="cls-1" x="98.38" y="236.74" width="4" height="40.1" transform="translate(-158.05 352.86) rotate(-89.04)"/><rect class="cls-1" x="80.58" y="254.29" width="40.1" height="4" transform="translate(-153.66 150.73) rotate(-46.02)"/><rect class="cls-1" x="98.3" y="236.66" width="4" height="39.93" transform="translate(-158.2 161.28) rotate(-48.41)"/><path class="cls-1" d="M39,281H13L9.61,242H42.17Zm-22.32-4H35.29l2.54-31H14Z"/><path class="cls-1" d="M40.17,253.67a8.67,8.67,0,0,1-1,0l-1.92-.23.61-7.39H30.36l-.17-1.82a4.35,4.35,0,0,1,0-.51,10,10,0,1,1,10,10ZM34.41,242h7.76l-.62,7.51A6,6,0,1,0,34.41,242Z"/><rect class="cls-1" x="13" y="252" width="25" height="4"/><path class="cls-1" d="M22.5,261.5a1.5,1.5,0,0,0,0-3,1.5,1.5,0,0,0,0,3Z"/><path class="cls-1" d="M18.25,261.5a1.5,1.5,0,0,0,0-3,1.5,1.5,0,0,0,0,3Z"/><path class="cls-1" d="M20.5,264.92a1.5,1.5,0,0,0,0-3,1.5,1.5,0,0,0,0,3Z"/></g></g></svg>