<svg xmlns="http://www.w3.org/2000/svg" viewBox="0 0 4.28 4.41"><defs><style>.cls-1{fill:#363894;}</style></defs><g id="Warstwa_2" data-name="Warstwa 2"><g id="Warstwa_1-2" data-name="Warstwa 1"><path class="cls-1" d="M4.25,1.19A.19.19,0,0,0,4.06.9L2.87,1A.18.18,0,0,1,2.7,1L1.91.07a.19.19,0,0,0-.34.09L1.33,1.33a.18.18,0,0,1-.11.14l-1.1.47a.2.2,0,0,0,0,.36l1,.58a.18.18,0,0,1,.1.16l.11,1.19a.19.19,0,0,0,.33.12l.88-.81a.19.19,0,0,1,.18,0l1.16.26a.2.2,0,0,0,.23-.27L3.63,2.4a.17.17,0,0,1,0-.18Z"/></g></g></svg>