<svg xmlns="http://www.w3.org/2000/svg" viewBox="0 0 19.35 19.35"><defs><style>.cls-1{fill:#363894;}</style></defs><g id="Warstwa_2" data-name="Warstwa 2"><g id="Warstwa_1-2" data-name="Warstwa 1"><path class="cls-1" d="M9.68,0a9.68,9.68,0,1,0,9.67,9.68A9.69,9.69,0,0,0,9.68,0Zm-4,16.21V14.28a1.88,1.88,0,0,1,.61-1.42,4.92,4.92,0,0,1,3-.82c.13,0,.25,0,.38,0s.25,0,.37,0a4.83,4.83,0,0,1,3,.82,1.85,1.85,0,0,1,.61,1.38v2a7.71,7.71,0,0,1-4,1.1A7.63,7.63,0,0,1,5.66,16.21ZM10.09,10H9.31a2.46,2.46,0,1,1,.78,0Zm5.54,4.48v-.31a3.9,3.9,0,0,0-1.29-2.85,4.62,4.62,0,0,0-1.32-.8,4.46,4.46,0,1,0-7.8-2.95,4.4,4.4,0,0,0,1.12,2.92A4.84,4.84,0,0,0,5,11.36a3.87,3.87,0,0,0-1.29,2.88v.19a7.67,7.67,0,1,1,12,.09Z"/></g></g></svg>