<svg xmlns="http://www.w3.org/2000/svg" viewBox="0 0 13.91 12.74"><defs><style>.cls-1{fill:#c9c9c9;}</style></defs><g id="Warstwa_2" data-name="Warstwa 2"><g id="Warstwa_1-2" data-name="Warstwa 1"><path class="cls-1" d="M12.77,1.24a3.79,3.79,0,0,0-5.64,0A4.09,4.09,0,0,0,4.2,0,4.21,4.21,0,0,0,1.28,1.22,4.13,4.13,0,0,0,0,4.18,5.08,5.08,0,0,0,.6,6.81a3,3,0,0,0,.93,1,3.9,3.9,0,0,0,.88.38v4.57H11V8.16a3.76,3.76,0,0,0,2-1.3,4.33,4.33,0,0,0,.87-2.68A4.29,4.29,0,0,0,12.77,1.24ZM3.64,11.5V10.27H9.81V11.5Zm8.43-5.4a2.6,2.6,0,0,1-1.74,1l-.52.08V9H3.64V7.15l-.52-.07a2.25,2.25,0,0,1-.91-.33,1.8,1.8,0,0,1-.74-1,4.77,4.77,0,0,1-.24-1.6A2.9,2.9,0,0,1,2.14,2.1,3,3,0,0,1,4.2,1.23a2.92,2.92,0,0,1,2.15,1,4.52,4.52,0,0,0-.41,1.93A3.56,3.56,0,0,0,6,4.7l1.22-.16s0-.13,0-.22V4.18A3.15,3.15,0,0,1,7.7,2.51,2.69,2.69,0,0,1,10,1.23a2.62,2.62,0,0,1,1.92.85,3.08,3.08,0,0,1,.8,2.1A3.12,3.12,0,0,1,12.07,6.1Z"/></g></g></svg>