<svg xmlns="http://www.w3.org/2000/svg" viewBox="0 0 13.91 9.59"><defs><style>.cls-1{fill:#c9c9c9;}</style></defs><g id="Warstwa_2" data-name="Warstwa 2"><g id="Warstwa_1-2" data-name="Warstwa 1"><path class="cls-1" d="M9.11,0A4.63,4.63,0,0,0,7,.53,4.58,4.58,0,0,0,4.81,0a4.8,4.8,0,1,0,0,9.59A4.58,4.58,0,0,0,7,9.06a4.63,4.63,0,0,0,2.16.53A4.8,4.8,0,1,0,9.11,0ZM2,7.6A4,4,0,0,1,4.81.82a3.81,3.81,0,0,1,1.31.24,4.76,4.76,0,0,0,0,7.47,3.8,3.8,0,0,1-1.31.23A4,4,0,0,1,2,7.6Zm9.93,0A4,4,0,0,1,9.11,8.76a3.79,3.79,0,0,1-1.94-.51h0a3.95,3.95,0,0,1,0-6.89h0A3.8,3.8,0,0,1,9.11.82,4,4,0,0,1,11.92,2a4,4,0,0,1,0,5.62Z"/></g></g></svg>