<svg xmlns="http://www.w3.org/2000/svg" viewBox="0 0 13.91 13.72"><defs><style>.cls-1{fill:#c9c9c9;}</style></defs><g id="Warstwa_2" data-name="Warstwa 2"><g id="Warstwa_1-2" data-name="Warstwa 1"><path class="cls-1" d="M11.41,1.6l-.7-.41L10.66,2a6.65,6.65,0,0,1-.58,2.24A4.92,4.92,0,0,0,9.2,1.52,3.77,3.77,0,0,0,6.46.06L5.9,0V.56c0,.76-.16,2.91-.93,3.63a.72.72,0,0,1-.57.2.82.82,0,0,1-.65-.32,3.62,3.62,0,0,1-.06-2.38L4,.54,3,1.12A6.9,6.9,0,0,0,.1,5.46a7.11,7.11,0,0,0,1.11,5,6.78,6.78,0,0,0,4.42,3.15,6.31,6.31,0,0,0,1.15.11,7.09,7.09,0,0,0,4.12-1.41,7.13,7.13,0,0,0,2.87-4.22C13.81,7.9,14.69,3.53,11.41,1.6Zm1.38,6.29a6.11,6.11,0,0,1-2.48,3.61,5.86,5.86,0,0,1-4.5,1.13A5.82,5.82,0,0,1,2.05,9.92a6.13,6.13,0,0,1-1-4.23A7.1,7.1,0,0,1,2.51,2.82a3.05,3.05,0,0,0,.42,1.82,1.85,1.85,0,0,0,1.39.75,1.73,1.73,0,0,0,1.33-.47C6.59,4,6.83,2.14,6.88,1.15a2.66,2.66,0,0,1,1.52,1A4.88,4.88,0,0,1,9,5.43l-.15.92L9.73,6c1.17-.51,1.63-2,1.82-3C13.43,4.69,12.8,7.85,12.79,7.89Z"/></g></g></svg>