<svg xmlns="http://www.w3.org/2000/svg" viewBox="0 0 89.05 104.18"><defs><style>.cls-1{fill:#91ca9d;}</style></defs><g id="Warstwa_2" data-name="Warstwa 2"><g id="Warstwa_1-2" data-name="Warstwa 1"><path class="cls-1" d="M89.05,66.72l-2-5.63L75.73,65,61.29,50.73A38.36,38.36,0,0,0,14.22,1.54L12.81,2l-.53,1.37a38.31,38.31,0,0,0,8.78,41.11l2.09-2.11-2.09,2.11A38.31,38.31,0,0,0,56.68,54.55L69.46,67.21,65.15,68.7A38.36,38.36,0,0,0,.25,89.28L0,90.73l1,1.08a38.34,38.34,0,0,0,40.77,10.24l-1-2.82,1,2.82A38.29,38.29,0,0,0,66.54,74.53ZM47.78,15.34A32.11,32.11,0,0,1,55.7,28a32.62,32.62,0,0,1,.85,17.65L20.76,6.25A32.3,32.3,0,0,1,47.78,15.34ZM17.34,27.54c-.11-.31-.2-.61-.29-.91l14.55.43,2.74,3L19,31.56A31.86,31.86,0,0,1,17.34,27.54Zm-.95-17.23L26,20.93l-10.21-.3A32.54,32.54,0,0,1,16.39,10.31ZM22.57,37.2l16.77-1.62,3.89,4.29L26.62,41.48c-.46-.41-.92-.83-1.37-1.27h0A32.8,32.8,0,0,1,22.57,37.2Zm12.09,9.49,13.57-1.32,3.61,4A32.34,32.34,0,0,1,34.66,46.69ZM27.42,65.23a32.32,32.32,0,0,1,31.09,5.5L7.36,85.48A32.32,32.32,0,0,1,27.42,65.23Zm-4.56,22-4.77,9a32.13,32.13,0,0,1-9-5ZM25,97.94,24,97.79l6.8-12.87,3.91-1.13L29.31,98.2A31.46,31.46,0,0,1,25,97.94Zm14.86-1.52h0a34.51,34.51,0,0,1-3.88,1.08l5.94-15.77,5.56-1.61L41.56,95.74C41,96,40.41,96.21,39.82,96.42Zm10-5.59,4.81-12.77,5.15-1.48A32.45,32.45,0,0,1,49.78,90.83Z"/></g></g></svg>