<svg xmlns="http://www.w3.org/2000/svg" viewBox="0 0 89.05 104.18"><defs><style>.cls-1{fill:#91ca9d;}</style></defs><g id="Warstwa_2" data-name="Warstwa 2"><g id="Warstwa_1-2" data-name="Warstwa 1"><path class="cls-1" d="M88.8,89.28A38.35,38.35,0,0,0,23.9,68.7l-4.31-1.49L32.37,54.55A38.33,38.33,0,0,0,68,44.44l-2.1-2.11L68,44.44A38.31,38.31,0,0,0,76.78,3.33L76.25,2l-1.41-.42A38.35,38.35,0,0,0,27.76,50.73L13.32,65,2,61.09,0,66.72l22.51,7.81a38.29,38.29,0,0,0,24.77,27.52l1-2.82-1,2.82A38.36,38.36,0,0,0,88.06,91.81l1-1.08ZM37.22,49.34l3.6-4L54.4,46.69A32.37,32.37,0,0,1,37.22,49.34ZM63.8,40.21h0c-.44.44-.91.86-1.37,1.27L45.82,39.87l3.89-4.29L66.48,37.2A32.8,32.8,0,0,1,63.8,40.21Zm9.42-19.58-10.2.3,9.64-10.62A32.25,32.25,0,0,1,73.22,20.63ZM57.45,27.06,72,26.63c-.09.3-.18.6-.28.91a31.92,31.92,0,0,1-1.68,4L54.71,30.08ZM33.36,28A32.4,32.4,0,0,1,68.29,6.25L32.51,45.66A32.42,32.42,0,0,1,33.36,28Zm13.41,35.7A32.4,32.4,0,0,1,81.69,85.48L30.54,70.73A32.5,32.5,0,0,1,46.77,63.71ZM80,91.19a32.18,32.18,0,0,1-9,5l-4.77-9ZM29.32,76.58l5.15,1.48,4.8,12.77A32.34,32.34,0,0,1,29.32,76.58ZM47.49,95.74,41.61,80.12l5.56,1.61L53.11,97.5a34.51,34.51,0,0,1-3.88-1.08h0C48.64,96.21,48.06,96,47.49,95.74Zm16.61,2.2a31.61,31.61,0,0,1-4.36.26L54.32,83.79l3.92,1.13L65,97.79Z"/></g></g></svg>