<svg xmlns="http://www.w3.org/2000/svg" viewBox="0 0 646.32 646.32"><defs><style>.cls-1{fill:#363894;}</style></defs><g id="Warstwa_2" data-name="Warstwa 2"><g id="Warstwa_1-2" data-name="Warstwa 1"><path class="cls-1" d="M193.67,383c8.5,5.66,36.06,3.53,58.67.54a7.34,7.34,0,0,1,.81-.05l34.18-.14a6.4,6.4,0,0,1,2.82.64,51.44,51.44,0,0,0,21.79,5.11,42.13,42.13,0,0,0,20-5,6.36,6.36,0,0,1,3-.77h32.64a27,27,0,0,0,22.9-12.82c19.12-30.52,4.47-58.3-7-70a6.81,6.81,0,0,1-1.08-1.43C343,228.31,330.06,150.66,342.85,62a6.45,6.45,0,0,0-5.39-7.27h0a6.47,6.47,0,0,0-7.4,5.48c-13.29,92.24.47,173.06,42,246.87l.5.87.72.68c1.05,1,25.42,24.51,6.27,55.06a14.09,14.09,0,0,1-12,6.76h-36a6.47,6.47,0,0,0-3.47,1h0c-16.47,10.49-33.45.38-34.14,0h0a6.41,6.41,0,0,0-3.43-1l-38.23.16-.83.05c-33.9,4.53-45.94,2.86-49.49,2a6,6,0,0,1-1.46-.59l-.36-.19a33.61,33.61,0,0,1-17.29-21.72c-3.77-14.27.88-28.81,2.15-30.84.57-.86,1.16-2,1.9-3.32,3.09-5.73,8.83-16.41,18.15-18.31,5.12-1,11.06.65,17.74,5a6.46,6.46,0,0,0,7.11-10.78c-9.67-6.32-18.87-8.64-27.43-6.9-15.24,3.1-23.15,17.78-26.95,24.84-.53,1-.94,1.78-1.27,2.28-3.49,5.23-8.44,23.08-4.06,40.61A46.63,46.63,0,0,0,193.67,383Z"/><path class="cls-1" d="M311.93,390.13a52.71,52.71,0,0,1-22.21-5.21,5.73,5.73,0,0,0-2.38-.54l-34.19.14a4.91,4.91,0,0,0-.67.05c-32.24,4.25-52.2,4-59.33-.68A47.63,47.63,0,0,1,169.22,353c-4.46-17.83.62-36.05,4.2-41.41.24-.36.57-1,.94-1.67l.28-.52c3.87-7.19,11.93-22.15,27.63-25.35,8.81-1.79,18.29.58,28.18,7.05a7.38,7.38,0,0,1,3.23,5,7.49,7.49,0,0,1-1.55,5.86,7.41,7.41,0,0,1-9.89,1.59c-6.44-4.23-12.16-5.87-17-4.89-8.86,1.81-14.46,12.21-17.47,17.8-.78,1.44-1.36,2.52-1.95,3.41-1.22,1.95-5.7,16.07-2,30A32.67,32.67,0,0,0,200.61,371l.37.2a5.37,5.37,0,0,0,1.22.49c3.58.9,15.51,2.5,49.12-2l.89-.06,38.29-.16a7.47,7.47,0,0,1,4,1.12c.69.42,17.11,10.22,33.08.05a7.41,7.41,0,0,1,4-1.17h36a13.11,13.11,0,0,0,11.11-6.29c18.7-29.85-5.09-52.84-6.11-53.8l-.9-.91-.5-.88c-41.68-74.06-55.45-155-42.13-247.51a7.46,7.46,0,0,1,14.78,2.09C331.08,150.62,344,228,383.27,298.63a5.84,5.84,0,0,0,.92,1.22c11.74,12,26.44,40.43,7.15,71.23a27.94,27.94,0,0,1-23.75,13.29H335a5.4,5.4,0,0,0-2.52.65,43.1,43.1,0,0,1-20.49,5.11Zm-24.57-7.75a7.38,7.38,0,0,1,3.23.74,50.58,50.58,0,0,0,21.34,5,40.66,40.66,0,0,0,19.56-4.87,7.33,7.33,0,0,1,3.46-.89h32.64A25.94,25.94,0,0,0,389.64,370c18.64-29.75,4.45-57.23-6.87-68.77a7.67,7.67,0,0,1-1.24-1.65C342,228.55,329,150.78,341.86,61.86a5.46,5.46,0,0,0-8.65-5.14A5.53,5.53,0,0,0,331,60.35c-13.26,92,.44,172.58,41.89,246.24l.42.74.61.57c1.07,1,26,25.09,6.43,56.32a15.08,15.08,0,0,1-12.8,7.23h-36a5.41,5.41,0,0,0-2.93.85c-17,10.84-34.47.42-35.2,0a5.5,5.5,0,0,0-2.89-.82h0l-38.23.16-.76.05c-33.89,4.53-46.12,2.86-49.8,1.94a7,7,0,0,1-1.71-.68l-.35-.19a34.55,34.55,0,0,1-17.77-22.34c-3.86-14.58.94-29.53,2.26-31.63.56-.83,1.12-1.87,1.83-3.19,3.2-5.95,9.1-16.89,18.87-18.89,5.37-1.09,11.59.65,18.49,5.17a5.41,5.41,0,0,0,7.23-1.16,5.49,5.49,0,0,0,1.13-4.3,5.27,5.27,0,0,0-2.35-3.64c-9.43-6.17-18.4-8.44-26.68-6.76-14.78,3-22.54,17.41-26.27,24.33l-.27.52c-.42.78-.75,1.4-1,1.85-3.41,5.1-8.23,22.58-3.92,39.81a45.66,45.66,0,0,0,23,29.65l.07.05c6.59,4.38,26.64,4.52,58,.38a7.26,7.26,0,0,1,.93-.06l34.19-.14Z"/><path class="cls-1" d="M357.8,232.29a6.46,6.46,0,0,0,8.54-3.25l44.34-98.75L455,229a6.46,6.46,0,1,0,11.78-5.29L416.71,112.2a6.68,6.68,0,0,0-12.07,0L354.56,223.75A6.46,6.46,0,0,0,357.8,232.29Z"/><path class="cls-1" d="M360.45,233.86a7.47,7.47,0,0,1-6.81-10.52l50.09-111.55a7.69,7.69,0,0,1,13.9,0l50.08,111.55a7.46,7.46,0,1,1-13.61,6.11l-43.42-96.72-43.43,96.72a7.46,7.46,0,0,1-6.8,4.41Zm50.13-124.47a5.47,5.47,0,0,0-5,3.22L355.47,224.16a5.46,5.46,0,0,0,10,4.48l45.25-100.79,45.25,100.79a5.46,5.46,0,0,0,10-4.48L415.8,112.61a5.49,5.49,0,0,0-5.1-3.22Z"/><path class="cls-1" d="M323.16,1C145.52,1,1,145.52,1,323.16S145.52,645.32,323.16,645.32,645.32,500.8,645.32,323.16,500.8,1,323.16,1Zm-118,36.33C199.7,66.39,170.47,164.11,17.91,273.6,35.23,166.53,107.71,77.71,205.17,37.33ZM13.92,323.16a309.29,309.29,0,0,1,1.66-32.09C198.21,163.78,217.15,51.56,219.09,32a308.7,308.7,0,0,1,31.65-9.45c-4,19.27-16.25,69.76-43.9,127.86C175.28,216.71,116.78,306.27,16.23,361A310.76,310.76,0,0,1,13.92,323.16Zm4.3,51.43c106.15-56.15,167.46-149.67,200.29-218.68,31.74-66.72,43.42-122.45,46-136.39q11.73-2.26,23.77-3.63C281,61.7,232.78,305.24,26.48,410.44A306.91,306.91,0,0,1,18.22,374.59Zm12.21,48.33C249,312.85,295.82,52.63,301.55,14.68c7.14-.49,14.34-.76,21.61-.76A307.33,307.33,0,0,1,455.6,43.75c7,36.18,43.8,252.71-40.77,415.12C402,445,387.31,437.07,371.06,435.28c-26.62-2.94-50.22,11.62-61,19.67-29.77-22.22-71.73-31.62-105.14,5.63a29.66,29.66,0,0,1-32.63.69,9.76,9.76,0,0,0-12.06,1.58c-2.58-5.35-4.57-9.94-5.94-13.27a6.57,6.57,0,0,0-12.23,4.79c8,21.34,32.52,76.44,79.25,93.89,27.06,10.1,56.89,6.1,88.73-11.87,24.29,13.71,47.36,19.29,68.92,16.7-28,24.59-81.92,66.1-131.4,69.95C145.86,597.39,64,521.24,30.43,422.92ZM422.47,616a309.66,309.66,0,0,1-142.39,13.35C344.7,608.58,404.56,547.07,407.5,544l5.8-6a4.9,4.9,0,0,0-5.61-7.83l-7.61,3.58c-25.61,12.07-54.79,8.59-86.73-10.32l-3.3-2-3.29,2c-29.55,17.49-56.77,21.8-80.9,12.78C198.76,526.09,178.39,497,166,474.07c18.83,15.89,50.1,33.51,96.14,33.51a211.55,211.55,0,0,0,50.44-6.45c9.52,9.33,25.92,21.81,45.53,21.81.68,0,1.37,0,2.05,0,15.46-.69,29.67-9.16,42.24-25.17l3.14-4-3.14-4c-12.57-16-26.79-24.47-42.24-25.16-21.91-1-40.1,14-49.52,23.72-52.88,13.22-90.7,3.68-115.92-10.14a42.66,42.66,0,0,0,18.13-7.36,10.22,10.22,0,0,0,.79-.66l.24-.22c.19-.18.37-.37.54-.56,36.41-40.8,79.3-11.26,91.6-1.21l4.13,3.37,4.09-3.41c6.49-5.41,29.67-22.86,55.42-20,15.35,1.69,29.24,10.48,41.26,26.12a6.46,6.46,0,0,0,10.77-.81h0c52.61-95.11,62.17-209.08,60.92-288A880.9,880.9,0,0,0,470.1,51.11a310.45,310.45,0,0,1,54.21,37.37c3,12.34,36.25,162.34-55.53,356.65a6.31,6.31,0,1,0,11.43,5.34c50.41-106.75,63.2-199.58,65-259.07C546.4,151.25,543,120.92,540,103a311.31,311.31,0,0,1,48.7,62c0,19.39-3.91,127.28-80.84,293.32a6.25,6.25,0,0,0,11.33,5.28c63.62-137.21,78.11-233.89,81.24-277.09a306.25,306.25,0,0,1,23,63.12l-.42,0c0,.44-2.81,45.49-29.08,113.11C569.93,424.62,520.64,518.74,422.47,616Zm-98.92-122.3c7.81-7.16,21.25-16.84,36-16.25,10.28.46,20.13,5.93,29.33,16.25-9.2,10.33-19.05,15.8-29.32,16.25C344.81,510.67,331.36,500.91,323.55,493.74Zm127,111.17C537.68,513,582.87,425.5,605.73,366.48a516.68,516.68,0,0,0,24.37-81,310.76,310.76,0,0,1,2.3,37.7C632.4,448.28,557.71,556.27,450.58,604.91Z"/><path class="cls-1" d="M323.16,646.32C145,646.32,0,501.35,0,323.16S145,0,323.16,0,646.32,145,646.32,323.16,501.35,646.32,323.16,646.32ZM323.16,2C146.07,2,2,146.07,2,323.16S146.07,644.32,323.16,644.32,644.32,500.25,644.32,323.16,500.25,2,323.16,2Zm0,631.4a314,314,0,0,1-43.22-3l-4.32-.61,4.15-1.34c64.5-20.76,124.48-82.49,127-85.1l5.8-6a3.9,3.9,0,0,0-4.47-6.24l-7.61,3.59c-25.92,12.21-55.41,8.72-87.66-10.37l-2.79-1.66-2.78,1.66c-29.83,17.65-57.34,22-81.76,12.86-27.43-10.24-48-39.69-60.41-62.59l-2.53-4.66,4.05,3.42c18,15.18,49.17,33.27,95.5,33.27a211.88,211.88,0,0,0,50.2-6.42l.54-.13.4.39c10.37,10.16,27.06,22.35,46.84,21.48,15.15-.68,29.11-9,41.5-24.78l2.65-3.38-2.65-3.37c-12.39-15.77-26.36-24.1-41.5-24.78-21.78-1-39.9,14.26-48.76,23.41l-.2.21-.28.07C266.22,500.44,227,497,194.22,479l-2.56-1.4,2.88-.46a41.23,41.23,0,0,0,17.7-7.18c.24-.18.47-.37.7-.58l.23-.23a5.55,5.55,0,0,0,.48-.49c15.82-17.73,34.6-24.45,55.8-20,16.8,3.54,30.51,13.21,37.18,18.67l3.49,2.85,3.46-2.89c6.57-5.48,30-23.12,56.17-20.23,15.64,1.73,29.75,10.65,41.95,26.51a5.46,5.46,0,0,0,9.1-.69c52.5-94.91,62-208.7,60.79-287.45a878.94,878.94,0,0,0-12.48-134.2l-.36-2,1.82,1A312,312,0,0,1,525,87.72l.24.21.08.31c1.79,7.38,10.57,47.39,7.8,110.37-3.62,82.47-25,165.56-63.39,246.94a5.31,5.31,0,0,0,9.61,4.5c50.43-106.8,63.13-199.61,64.9-258.67,1.19-39.79-2.14-70-5.15-88.27l-.49-3,2.18,2.15a312.74,312.74,0,0,1,48.86,62.15l.14.24v.28c0,19.93-4,127.77-80.93,293.74a5.25,5.25,0,1,0,9.51,4.44c63-135.85,77.88-231.7,81.16-276.74l.26-3.66,1.63,3.29a308.5,308.5,0,0,1,23.12,63.32l.33,1.32-.79-.05c-.56,7.13-4.77,49.85-29.08,112.42-24.07,61.95-73.41,156.26-171.77,253.76l-.17.17-.22.07A308.8,308.8,0,0,1,323.16,633.4ZM284.48,629a310.35,310.35,0,0,0,38.68,2.44,306.81,306.81,0,0,0,98.77-16.23C519.94,518,569.1,424,593.08,362.27c20.81-53.57,28.09-97.21,29-112.81l.06-1h.06a306.6,306.6,0,0,0-21-58.3c-3.82,46.59-19.59,141.2-81.05,273.76a7.26,7.26,0,0,1-9.6,3.53,7.26,7.26,0,0,1-3.55-9.65C583.37,293,587.68,185.75,587.74,165.18a310.48,310.48,0,0,0-46.23-59.36c2.88,18.61,5.82,47.79,4.68,85.61-1.77,59.26-14.5,152.37-65.08,259.47a7.31,7.31,0,1,1-13.23-6.2c38.33-81.15,59.59-164,63.2-246.18,2.76-62.76-6.28-103.66-7.67-109.5a310,310,0,0,0-52-36,885.28,885.28,0,0,1,12.15,132.47c1.25,79-8.33,193.15-61,288.45a7.46,7.46,0,0,1-12.44.94c-11.85-15.42-25.51-24.08-40.58-25.74-25.35-2.81-48.25,14.43-54.67,19.78l-4.73,3.94-4.76-3.89C293.26,459,251,429.89,215.15,470c-.19.22-.4.43-.61.63l-.24.22a10.18,10.18,0,0,1-.87.73,42.8,42.8,0,0,1-15.77,7c31.73,16.51,69.54,19.47,112.44,8.8,9.16-9.42,27.71-24.79,50.09-23.82,15.75.71,30.21,9.3,43,25.54l3.62,4.61-3.62,4.61c-12.76,16.25-27.22,24.84-43,25.55-20.26.87-37.25-11.31-47.93-21.67a213.07,213.07,0,0,1-50.14,6.35c-43.64,0-74-15.87-92.76-30.48,12.43,21.82,31.76,47.8,56.85,57.17,23.83,8.9,50.76,4.62,80-12.71l3.8-2.26,3.81,2.26c31.64,18.73,60.51,22.19,85.79,10.28l7.61-3.59a5.9,5.9,0,0,1,6.76,9.43l-5.8,6C405.73,547.29,347.87,606.83,284.48,629Zm-37-4.91-.16,0A311.47,311.47,0,0,1,29.49,423.24l-.28-.82L30,422c50.08-25.22,95-60.43,133.47-104.65,31.47-36.17,58.88-78.58,81.46-126.06,39.37-82.78,52.55-156.24,55.65-176.79l.12-.79.8-.05c7.36-.52,14.65-.77,21.68-.77A306.82,306.82,0,0,1,456,42.85l.46.22.09.49c3.41,17.6,14.47,81.18,14,160.42-.63,100.77-19.08,186.69-54.83,255.35l-.66,1.26-1-1C401.44,445.87,386.93,438,371,436.27c-25.92-2.87-48.9,11-60.28,19.48l-.6.45-.6-.45c-55-41-93.34-6.16-103.79,5.49l-.17.16c-2.71,1.89-17.09,10.85-33.73.73A8.69,8.69,0,0,0,161,463.55l-1,1-.62-1.29c-2.17-4.5-4.18-9-6-13.33A5.57,5.57,0,0,0,143,454c25,67,63.34,87.58,78.67,93.3,26.75,10,56.32,6,87.89-11.8l.49-.28.5.28c24,13.56,47,19.14,68.3,16.58l3.2-.38-2.42,2.12c-27.91,24.55-82.17,66.32-132,70.2ZM31.66,423.42A309.52,309.52,0,0,0,247.65,622c47.83-3.81,100-43.06,128.3-67.63-20.69,1.72-42.84-3.95-65.9-16.86-31.92,17.88-61.89,21.81-89.08,11.65-20.34-7.59-38.73-23-54.64-45.85a226.11,226.11,0,0,1-25.2-48.62,7.57,7.57,0,0,1,14.09-5.53c1.62,3.92,3.41,8,5.34,12a10.68,10.68,0,0,1,12.26-.79,28.7,28.7,0,0,0,31.45-.6c15.6-17.35,34-25.86,54.62-25.36,21.37.55,39.53,10.66,51.18,19.25,11.81-8.71,34.94-22.31,61.1-19.43,16.06,1.78,30.66,9.47,43.42,22.87,35.18-68.17,53.34-153.34,54-253.18.49-78.33-10.33-141.31-13.84-159.53A304.79,304.79,0,0,0,323.16,14.92c-6.73,0-13.7.23-20.74.71-3.33,21.65-16.7,94.56-55.7,176.55-22.66,47.64-50.17,90.21-81.76,126.51C126.5,362.88,81.66,398.11,31.66,423.42ZM446.33,607.94l3.52-3.71c87.67-92.51,132.65-180.55,154.94-238.11a514.31,514.31,0,0,0,24.33-80.86l1.23-6,.74,6a313.65,313.65,0,0,1,2.31,37.82A310.67,310.67,0,0,1,451,605.82ZM629.79,291.67a524.21,524.21,0,0,1-23.13,75.18c-22,56.94-66.24,143.61-151.79,235A308.24,308.24,0,0,0,629.79,291.67ZM358.08,511c-14.14,0-26.89-8.92-35.21-16.55l-.8-.74.8-.74c7-6.43,21.11-17.15,36.73-16.5,10.55.47,20.65,6.05,30,16.58l.59.66-.59.67c-9.39,10.53-19.49,16.11-30,16.58C359.1,511,358.59,511,358.08,511Zm-33-17.29c8.35,7.48,20.87,15.88,34.48,15.26,9.76-.44,19.19-5.57,28-15.26-8.85-9.68-18.27-14.81-28-15.25C345.21,477.91,332.06,487.47,325,493.74ZM25.86,411.88l-.34-1.16a309.92,309.92,0,0,1-8.29-36l-.12-.71.64-.33C123.81,317.61,185,224.07,217.61,155.48c31.41-66,43.09-120.9,45.93-136.15l.12-.67.67-.12c7.86-1.52,15.88-2.74,23.85-3.64l1.31-.15-.21,1.3c-7.62,47.56-56.1,290.11-262.35,395.28Zm-6.54-36.75A307.69,307.69,0,0,0,27.1,409c202.66-104.1,251.76-341.7,260-392-7.26.85-14.55,2-21.71,3.33-3.06,16.19-14.89,70.66-46,136C186.71,225.07,125.47,318.75,19.32,375.13Zm-3.9-12.56-.18-1.46A312.27,312.27,0,0,1,14.58,291l.05-.45.37-.26C92,236.57,149,179.5,184.24,120.62c27.88-46.55,33-79.71,33.85-88.76l.06-.63.6-.22a308.3,308.3,0,0,1,31.76-9.48l1.53-.37-.32,1.54c-4,19.11-16.25,69.83-44,128.09-31.37,65.94-90,156.08-191,211.08Zm1.1-70.94a313.43,313.43,0,0,0-1.6,31.53,310.29,310.29,0,0,0,2.13,36.24c99.8-54.8,157.78-144.08,188.89-209.47,26.91-56.55,39.2-106,43.5-126.08A304.5,304.5,0,0,0,220,32.68C217.61,55.29,196.68,165.94,16.52,291.63Zm0-15.82.39-2.37a311.17,311.17,0,0,1,187.86-237l1.71-.71-.34,1.82c-2.85,15.13-11.65,46.73-38.61,88.33-33.46,51.61-83.6,101.59-149,148.56ZM203.82,39A309.28,309.28,0,0,0,19.29,271.37C83.57,225,132.88,175.64,165.86,124.76,191.59,85.07,200.65,54.6,203.82,39Z"/></g></g></svg>