<svg xmlns="http://www.w3.org/2000/svg" viewBox="0 0 126.26 240.98"><defs><style>.cls-1{fill:#fff;}.cls-2{fill:#363894;}.cls-3{fill:#ced6e0;}.cls-4{fill:#e06625;}.cls-5{opacity:0.17;}</style></defs><g id="Warstwa_2" data-name="Warstwa 2"><g id="Warstwa_1-2" data-name="Warstwa 1"><path class="cls-1" d="M66.66,152.07a3.57,3.57,0,0,0-5,.21L28.08,188.76l75.05-3.14Z"/><path class="cls-2" d="M24.52,190.41l36-39.14a5,5,0,0,1,7.15-.3h0l39.14,36Zm39.73-37.78h-.09a2.06,2.06,0,0,0-1.44.67L31.64,187.11l67.81-2.84L65.64,153.18A2,2,0,0,0,64.25,152.63Z"/><rect class="cls-1" x="15.04" y="162.47" width="52.1" height="26.2" transform="translate(131 19.27) rotate(43.08)"/><path class="cls-3" d="M51.24,205.05,11,167.42l19.94-21.33,40.25,37.64Zm-36-37.78L51.1,200.81,67,183.87,31.08,150.33Z"/><rect class="cls-1" x="64.66" y="162.02" width="52.1" height="26.2" transform="matrix(-0.3, 0.96, -0.96, -0.3, 284.8, 140.13)"/><path class="cls-4" d="M96.53,205.75l-27.9-8.61L84.9,144.49l27.89,8.61ZM72.38,195.16,94.55,202,109,155.08l-22.16-6.84Z"/><rect class="cls-1" x="27.97" y="85.61" width="52.1" height="26.2" transform="translate(156.29 145.61) rotate(143.33)"/><path class="cls-4" d="M40.64,126.87,23.2,103.45,67.4,70.54,84.84,94ZM27.4,104.06l13.85,18.61L80.64,93.35,66.79,74.74Z"/><rect class="cls-1" x="4.3" y="100.06" width="52.1" height="26.2" transform="matrix(-0.02, -1, 1, -0.02, -82.11, 146)"/><path class="cls-3" d="M16.36,141l-1.22-55.1,29.19-.64,1.22,55.09Zm1.85-52.16L19.29,138l23.2-.51L41.4,88.35Z"/><rect class="cls-1" x="4.63" y="9.17" width="52.1" height="26.2" transform="translate(66.68 34.18) rotate(162.33)"/><path class="cls-3" d="M8.86,44.55,0,16.73,52.5,0l8.87,27.82ZM3.77,18.67l7,22.11L57.6,25.87l-7-22.1Z"/><rect class="cls-1" x="69.69" y="32.88" width="52.1" height="26.2" transform="translate(139.9 142.58) rotate(-140.22)"/><path class="cls-4" d="M107.58,74.83,65.23,39.57,83.91,17.13l42.35,35.26ZM69.45,39.18,107.19,70.6,122,52.78,84.3,21.36Z"/><rect class="cls-1" x="57.52" y="71.6" width="52.1" height="26.2" transform="translate(151.68 -12.87) rotate(79.54)"/><path class="cls-3" d="M74.22,114.44l-10-54.19L92.92,55l10,54.19ZM67.71,62.66,76.62,111l22.82-4.22L90.52,58.44Z"/><g class="cls-5"><path class="cls-2" d="M109.08,232.63l-1.71-40.87-78.61,3.29,1.71,40.87a3.73,3.73,0,0,0,3.88,3.56l71.17-3A3.73,3.73,0,0,0,109.08,232.63Z"/><path class="cls-2" d="M34.18,241a5.22,5.22,0,0,1-5.2-5L27.2,193.61l81.6-3.41,1.77,42.37a5.22,5.22,0,0,1-5,5.43l-71.17,3Zm-3.85-44.5L32,235.86a2.24,2.24,0,0,0,.72,1.54,2.11,2.11,0,0,0,1.59.58l71.17-3a2.23,2.23,0,0,0,2.13-2.31l-1.65-39.37Z"/></g><path class="cls-1" d="M106.82,229.59l-1.71-40.87L26.51,192l1.71,40.87a3.73,3.73,0,0,0,3.87,3.56l71.17-3A3.71,3.71,0,0,0,106.82,229.59Z"/><path class="cls-2" d="M31.93,237.94a5.22,5.22,0,0,1-5.21-5L25,190.57l81.6-3.41,1.77,42.37a5.21,5.21,0,0,1-5,5.43l-71.17,3Zm-3.86-44.49,1.65,39.37A2.21,2.21,0,0,0,32,234.94l71.17-3a2.2,2.2,0,0,0,2.12-2.31l-1.64-39.37Z"/></g></g></svg>