<svg xmlns="http://www.w3.org/2000/svg" viewBox="0 0 154.77 107.51"><defs><style>.cls-1{fill:#91ca9d;}.cls-2{fill:#e06625;}</style></defs><g id="Warstwa_2" data-name="Warstwa 2"><g id="Warstwa_1-2" data-name="Warstwa 1"><path class="cls-1" d="M128.13,103.79l-.64-2.61a29.07,29.07,0,0,1-28.33-8.51l-2,1.82,2.64.45a29.14,29.14,0,0,1,50.11-14.85l2-1.81-2.64-.46a29.1,29.1,0,0,1-21.78,23.36l.64,2.61.64,2.6a34.5,34.5,0,0,0,25.78-27.66l.22-1.3-.9-1A34.48,34.48,0,0,0,94.55,94l-.22,1.3.89,1a34.48,34.48,0,0,0,33.55,10.08Z"/><polygon class="cls-1" points="151.13 75.71 96.6 92.21 74.53 97.63 75.81 102.83 98 97.38 152.68 80.84 151.13 75.71 151.13 75.71"/><polyline class="cls-1" points="137.59 98.35 120.3 85.58 117.11 89.89 134.4 102.66"/><polyline class="cls-1" points="126.83 102.25 109.54 89.48 106.35 93.79 123.64 106.56"/><polyline class="cls-1" points="144.51 90.83 130.27 82.86 127.65 87.53 141.89 95.5"/><path class="cls-2" d="M84.79,53.32H82.08A38,38,0,1,1,71,26.45,37.82,37.82,0,0,1,82.08,53.32h5.41a43.41,43.41,0,1,0-43.4,43.41,43.41,43.41,0,0,0,43.4-43.41Z"/><path class="cls-2" d="M104.8,53.75h-2.7A48.35,48.35,0,1,1,87.94,19.57,48.24,48.24,0,0,1,102.1,53.75h5.41a53.76,53.76,0,1,0-53.76,53.76,53.76,53.76,0,0,0,53.76-53.76Z"/><polyline class="cls-2" points="41.38 12.61 41.04 95.37 46.45 95.39 46.79 12.63"/><polyline class="cls-2" points="3.34 56.03 84.4 57.38 84.5 51.97 3.43 50.62"/><polyline class="cls-2" points="70.63 21.93 14.33 80.28 18.22 84.03 74.52 25.69"/><polyline class="cls-2" points="11.76 28.89 72.14 82.48 75.73 78.43 15.35 24.84"/></g></g></svg>