<svg xmlns="http://www.w3.org/2000/svg" viewBox="0 0 200.94 107.51"><defs><style>.cls-1{fill:#91ca9d;}.cls-2{fill:#e06625;}</style></defs><g id="Warstwa_2" data-name="Warstwa 2"><g id="Warstwa_1-2" data-name="Warstwa 1"><path class="cls-1" d="M187,55.13l-2.1-1.67a29.09,29.09,0,0,1-27.59,10.67l-.44,2.65,2.37-1.27A29.13,29.13,0,0,1,189.68,23l.44-2.65-2.36,1.27a29.11,29.11,0,0,1-2.86,31.8l2.1,1.67,2.1,1.66a34.45,34.45,0,0,0,3.38-37.66L191.86,18l-1.3-.22A34.49,34.49,0,0,0,154.51,68l.62,1.16,1.3.22A34.45,34.45,0,0,0,189.1,56.79Z"/><polygon class="cls-1" points="187.93 18.84 155 65.34 140.9 83.16 145.11 86.48 159.28 68.56 192.31 21.94 187.93 18.84 187.93 18.84"/><polyline class="cls-1" points="191.13 45.03 169.65 45.56 169.78 50.91 191.26 50.39"/><polyline class="cls-1" points="185.03 54.72 163.54 55.24 163.68 60.6 185.16 60.07"/><polyline class="cls-1" points="191.98 34.84 175.85 37.29 176.65 42.59 192.78 40.14"/><path class="cls-1" d="M26.39,103.62l.67-2.6a29.1,29.1,0,0,0,28.41-8.24l2,1.83L54.77,95a29.14,29.14,0,0,0-50-15.32L2.86,77.89l2.64-.43A29.1,29.1,0,0,0,27.06,101l-.67,2.6-.66,2.59A34.46,34.46,0,0,1,.21,78.31L0,77l.91-1A34.48,34.48,0,0,1,60.06,94.19l.21,1.3-.9,1a34.45,34.45,0,0,1-33.64,9.76Z"/><polygon class="cls-1" points="3.66 75.33 58.03 92.33 80.05 97.96 78.72 103.15 56.58 97.5 2.06 80.44 3.66 75.33 3.66 75.33"/><polyline class="cls-1" points="16.99 98.09 34.39 85.48 37.54 89.82 20.13 102.43"/><polyline class="cls-1" points="27.71 102.09 45.12 89.49 48.26 93.83 30.86 106.44"/><polyline class="cls-1" points="10.14 90.5 24.45 82.67 27.02 87.37 12.71 95.2"/><path class="cls-1" d="M174.3,103.79l-.64-2.61a29.07,29.07,0,0,1-28.33-8.51l-2,1.82,2.64.45a29.14,29.14,0,0,1,50.11-14.85l2-1.81-2.64-.46a29.06,29.06,0,0,1-21.78,23.36l.64,2.61.64,2.6a34.46,34.46,0,0,0,25.78-27.66l.22-1.3-.89-1A34.49,34.49,0,0,0,140.72,94l-.22,1.3.9,1a34.46,34.46,0,0,0,33.54,10.08Z"/><polygon class="cls-1" points="197.3 75.71 142.77 92.21 120.7 97.63 121.98 102.83 144.17 97.38 198.85 80.84 197.3 75.71 197.3 75.71"/><polyline class="cls-1" points="183.76 98.35 166.47 85.58 163.29 89.89 180.57 102.66"/><polyline class="cls-1" points="173 102.25 155.71 89.48 152.52 93.79 169.81 106.56"/><polyline class="cls-1" points="190.68 90.83 176.44 82.86 173.82 87.53 188.06 95.5"/><path class="cls-2" d="M131,53.32h-2.7a38,38,0,1,1-11.13-26.87,37.9,37.9,0,0,1,11.13,26.87h5.4a43.41,43.41,0,1,0-43.4,43.41,43.41,43.41,0,0,0,43.4-43.41Z"/><path class="cls-2" d="M151,53.75h-2.7a48.35,48.35,0,1,1-14.16-34.18,48.2,48.2,0,0,1,14.16,34.18h5.41a53.76,53.76,0,1,0-53.76,53.76,53.76,53.76,0,0,0,53.76-53.76Z"/><polyline class="cls-2" points="87.55 12.61 87.21 95.37 92.62 95.39 92.96 12.63"/><polyline class="cls-2" points="49.51 56.03 130.57 57.38 130.67 51.97 49.6 50.62"/><polyline class="cls-2" points="116.8 21.93 60.5 80.28 64.39 84.03 120.69 25.69"/><polyline class="cls-2" points="57.93 28.89 118.31 82.48 121.9 78.43 61.52 24.84"/></g></g></svg>