<?xml version="1.0" encoding="utf-8"?>
<!-- Generator: Adobe Illustrator 19.0.0, SVG Export Plug-In . SVG Version: 6.00 Build 0)  -->
<svg version="1.1" id="Warstwa_1" xmlns:serif="http://www.serif.com/"
	 xmlns="http://www.w3.org/2000/svg" xmlns:xlink="http://www.w3.org/1999/xlink" x="0px" y="0px" viewBox="0 -25 200 200"
	 style="enable-background:new 0 -25 200 200;" xml:space="preserve">
<style type="text/css">
	.st0{fill:#E16625;}
</style>
<path class="st0" d="M99.6,175L99.6,175L99.6,175C99.7,175,99.6,175,99.6,175z M100.3,175L100.3,175L100.3,175L100.3,175z M99.3,175
	L99.3,175L99.3,175L99.3,175z M100.6,175L100.6,175L100.6,175L100.6,175z M99,175L99,175L99,175L99,175z M101,175L101,175L101,175
	L101,175L101,175z M101.3,175L101.3,175L101.3,175L101.3,175L101.3,175z M98.6,175L98.6,175L98.6,175L98.6,175L98.6,175z M101.6,175
	L101.6,175L101.6,175L101.6,175L101.6,175z M98.3,175L98.3,175L98.3,175L98.3,175L98.3,175z M101.9,175L101.9,175L101.9,175
	L101.9,175z M98,175L98,175L98,175C98.1,175,98,175,98,175z M97.7,175L97.7,175L97.7,175L97.7,175z M102.3,175L102.3,175L102.3,175
	L102.3,175z M97.3,175L97.3,175L97.3,175L97.3,175z M102.6,175L102.6,175L102.6,175L102.6,175z M102.9,175L102.9,175L102.9,175
	L102.9,175L102.9,175z M97.1,175L97.1,175L97.1,175L97.1,175z M96.8,174.9L96.8,174.9L96.8,174.9L96.8,174.9L96.8,174.9z
	 M103.2,174.9L103.2,174.9L103.2,174.9L103.2,174.9L103.2,174.9z M103.5,174.9L103.5,174.9L103.5,174.9L103.5,174.9z M96.4,174.9
	L96.4,174.9L96.4,174.9L96.4,174.9z M96.1,174.9L96.1,174.9L96.1,174.9L96.1,174.9z M103.9,174.9L103.9,174.9L103.9,174.9
	L103.9,174.9z M95.8,174.9L95.8,174.9L95.8,174.9L95.8,174.9L95.8,174.9z M104.2,174.9L104.2,174.9L104.2,174.9L104.2,174.9
	L104.2,174.9z M95.4,174.9L95.4,174.9L95.4,174.9L95.4,174.9z M104.5,174.9L104.5,174.9L104.5,174.9L104.5,174.9L104.5,174.9z
	 M95.1,174.9h0.2H95.1L95.1,174.9z M104.8,174.9L104.8,174.9L104.8,174.9L104.8,174.9z M94.8,174.9H95H94.8L94.8,174.9z
	 M105.1,174.9L105.1,174.9L105.1,174.9L105.1,174.9z M105.5,174.9L105.5,174.9L105.5,174.9L105.5,174.9L105.5,174.9L105.5,174.9z
	 M94.6,174.9L94.6,174.9L94.6,174.9L94.6,174.9L94.6,174.9L94.6,174.9z M105.8,174.8L105.8,174.8L105.8,174.8L105.8,174.8z
	 M94.1,174.8h0.2H94.1L94.1,174.8z M93.8,174.8H94H93.8L93.8,174.8L93.8,174.8z M106.1,174.8L106.1,174.8L106.1,174.8L106.1,174.8
	L106.1,174.8z M93.6,174.8L93.6,174.8L93.6,174.8L93.6,174.8C93.4,174.8,93.6,174.8,93.6,174.8z M106.4,174.8L106.4,174.8
	L106.4,174.8L106.4,174.8L106.4,174.8L106.4,174.8z M106.7,174.8L106.7,174.8L106.7,174.8L106.7,174.8L106.7,174.8z M93.2,174.8h0.2
	l0,0H93.2z M92.9,174.7L92.9,174.7L92.9,174.7C92.9,174.8,92.9,174.7,92.9,174.7z M107.1,174.8L107.1,174.8L107.1,174.8L107.1,174.8
	z M92.6,174.7L92.6,174.7L92.6,174.7L92.6,174.7L92.6,174.7z M107.4,174.7L107.4,174.7L107.4,174.7L107.4,174.7L107.4,174.7z
	 M92.2,174.7L92.2,174.7L92.2,174.7L92.2,174.7z M107.7,174.7L107.7,174.7L107.7,174.7L107.7,174.7z M108,174.7L108,174.7L108,174.7
	L108,174.7z M91.9,174.7L91.9,174.7L91.9,174.7C92,174.7,91.9,174.7,91.9,174.7z M91.6,174.7L91.6,174.7L91.6,174.7L91.6,174.7z
	 M108.3,174.7L108.3,174.7L108.3,174.7L108.3,174.7z M91.3,174.6L91.3,174.6L91.3,174.6L91.3,174.6L91.3,174.6z M108.6,174.6
	L108.6,174.6L108.6,174.6L108.6,174.6L108.6,174.6z M109,174.6L109,174.6L109,174.6L109,174.6L109,174.6z M91,174.6L91,174.6
	L91,174.6L91,174.6L91,174.6z M90.7,174.6L90.7,174.6L90.7,174.6L90.7,174.6z M109.3,174.6L109.3,174.6L109.3,174.6L109.3,174.6z
	 M84.4,173.8C36.6,166.3,0,124.9,0,75C0,19.8,44.8-25,100-25S200,19.8,200,75c0,49.9-36.6,91.3-84.4,98.8v-69.9h23.3l4.4-28.9h-27.7
	V56.2c0-7.9,3.9-15.6,16.3-15.6h12.6V16c0,0-11.4-2-22.4-2c-22.8,0-37.8,13.8-37.8,38.9v22H59v28.9h25.4V173.8z"/>
</svg>
