<?xml version="1.0" encoding="utf-8"?>
<!-- Generator: Adobe Illustrator 19.0.0, SVG Export Plug-In . SVG Version: 6.00 Build 0)  -->
<svg version="1.1" id="Warstwa_1" xmlns:serif="http://www.serif.com/"
	 xmlns="http://www.w3.org/2000/svg" xmlns:xlink="http://www.w3.org/1999/xlink" x="0px" y="0px" viewBox="0 -25 200 200"
	 style="enable-background:new 0 -25 200 200;" xml:space="preserve">
<style type="text/css">
	.st0{fill:#E16625;}
</style>
<path class="st0" d="M100-25c55.2,0,100,44.8,100,100s-44.8,100-100,100S0,130.2,0,75S44.8-25,100-25z M100,12.5
	c-17,0-19.1,0.1-25.8,0.4C67.5,13.2,63,14.3,59,15.8c-4.1,1.6-7.6,3.7-11.1,7.2c-3.5,3.5-5.6,7-7.2,11.1c-1.5,4-2.6,8.5-2.9,15.2
	c-0.3,6.7-0.4,8.8-0.4,25.8s0.1,19.1,0.4,25.8c0.3,6.7,1.4,11.2,2.9,15.2c1.6,4.1,3.7,7.6,7.2,11.1s7,5.6,11.1,7.2
	c4,1.5,8.5,2.6,15.2,2.9c6.7,0.3,8.8,0.4,25.8,0.4s19.1-0.1,25.8-0.4c6.7-0.3,11.2-1.4,15.2-2.9c4.1-1.6,7.6-3.7,11.1-7.2
	s5.6-7,7.2-11.1c1.5-4,2.6-8.5,2.9-15.2c0.3-6.7,0.4-8.8,0.4-25.8s-0.1-19.1-0.4-25.8c-0.3-6.7-1.4-11.2-2.9-15.2
	c-1.6-4.1-3.7-7.6-7.2-11.1c-3.5-3.5-7-5.6-11.1-7.2c-4-1.5-8.5-2.6-15.2-2.9C119.1,12.6,117,12.5,100,12.5z M100,23.8
	c16.7,0,18.7,0.1,25.3,0.4c6.1,0.3,9.4,1.3,11.6,2.2c2.9,1.1,5,2.5,7.2,4.7s3.5,4.3,4.7,7.2c0.9,2.2,1.9,5.5,2.2,11.6
	c0.3,6.6,0.4,8.6,0.4,25.3s-0.1,18.7-0.4,25.3c-0.3,6.1-1.3,9.4-2.2,11.6c-1.1,2.9-2.5,5-4.7,7.2s-4.3,3.5-7.2,4.7
	c-2.2,0.9-5.5,1.9-11.6,2.2c-6.6,0.3-8.6,0.4-25.3,0.4s-18.7-0.1-25.3-0.4c-6.1-0.3-9.4-1.3-11.6-2.2c-2.9-1.1-5-2.5-7.2-4.7
	s-3.5-4.3-4.7-7.2c-0.9-2.2-1.9-5.5-2.2-11.6c-0.3-6.6-0.4-8.6-0.4-25.3s0.1-18.7,0.4-25.3c0.3-6.1,1.3-9.4,2.2-11.6
	c1.1-2.9,2.5-5,4.7-7.2s4.3-3.5,7.2-4.7c2.2-0.9,5.5-1.9,11.6-2.2C81.3,23.8,83.3,23.8,100,23.8z M100,42.9
	c-17.7,0-32.1,14.4-32.1,32.1s14.4,32.1,32.1,32.1s32.1-14.4,32.1-32.1S117.7,42.9,100,42.9z M100,95.8c-11.5,0-20.8-9.3-20.8-20.8
	s9.3-20.8,20.8-20.8s20.8,9.3,20.8,20.8S111.5,95.8,100,95.8z M140.9,41.6c0,4.1-3.4,7.5-7.5,7.5s-7.5-3.4-7.5-7.5s3.4-7.5,7.5-7.5
	S140.9,37.5,140.9,41.6z"/>
</svg>
