<?xml version="1.0" encoding="utf-8"?>
<!-- Generator: Adobe Illustrator 19.0.0, SVG Export Plug-In . SVG Version: 6.00 Build 0)  -->
<svg version="1.1" id="Warstwa_1" xmlns="http://www.w3.org/2000/svg" xmlns:xlink="http://www.w3.org/1999/xlink" x="0px" y="0px"
	 viewBox="156 -180 511 511" style="enable-background:new 156 -180 511 511;" xml:space="preserve">
<style type="text/css">
	.st0{fill:#E16625;stroke:#E16625;stroke-miterlimit:10;}
</style>
<path class="st0" d="M665.6-29.7c-1.2-27.2-5.6-45.8-11.9-62c-6.5-17.2-16.5-32.5-29.5-45.3c-12.8-13-28.3-23.1-45.2-29.4
	c-16.3-6.3-34.8-10.7-62-11.9c-27.4-1.3-36-1.6-105.4-1.6s-78.1,0.3-105.3,1.5s-45.8,5.6-62,11.9C227.1-160,211.8-150,199-137
	c-13,12.8-23.1,28.3-29.4,45.2c-6.3,16.3-10.7,34.8-11.9,62c-1.3,27.4-1.6,36-1.6,105.4s0.3,78.1,1.5,105.3s5.6,45.8,11.9,62
	c6.5,17.2,16.6,32.5,29.5,45.3c12.8,13,28.3,23.1,45.2,29.4c16.3,6.3,34.8,10.7,62,11.9s35.9,1.5,105.3,1.5s78.1-0.3,105.3-1.5
	s45.8-5.6,62-11.9c34.3-13.3,61.5-40.4,74.8-74.8c6.3-16.3,10.7-34.8,11.9-62c1.2-27.3,1.5-35.9,1.5-105.3S666.8-2.4,665.6-29.7z
	 M619.6,179c-1.1,25-5.3,38.4-8.8,47.4c-8.6,22.3-26.3,39.9-48.5,48.5c-9,3.5-22.6,7.7-47.4,8.8c-27,1.2-35,1.5-103.2,1.5
	s-76.4-0.3-103.2-1.5c-25-1.1-38.4-5.3-47.4-8.8c-11.1-4.1-21.2-10.6-29.3-19.1c-8.5-8.3-15-18.3-19.1-29.3
	c-3.5-9-7.7-22.6-8.8-47.4c-1.2-27-1.5-35-1.5-103.2s0.3-76.4,1.5-103.2c1.1-25,5.3-38.4,8.8-47.4c4.1-11.1,10.6-21.2,19.2-29.4
	c8.3-8.5,18.3-15,29.3-19.1c9-3.5,22.6-7.7,47.4-8.8c27-1.2,35-1.5,103.2-1.5c68.3,0,76.4,0.3,103.2,1.5c25,1.1,38.4,5.3,47.4,8.8
	c11.1,4.1,21.2,10.6,29.3,19.1c8.5,8.3,15,18.3,19.1,29.4c3.5,9,7.7,22.6,8.8,47.4c1.2,27,1.5,35,1.5,103.2S620.8,152,619.6,179z"/>
<path class="st0" d="M415.4-55.6c-72.5,0-131.3,58.8-131.3,131.3S343,206.9,415.4,206.9c72.5,0,131.3-58.8,131.3-131.3
	S487.9-55.6,415.4-55.6z M415.4,160.8c-47,0-85.2-38.1-85.2-85.2s38.1-85.2,85.2-85.2c47,0,85.2,38.1,85.2,85.2
	S462.5,160.8,415.4,160.8z"/>
<path class="st0" d="M582.6-60.8c0,16.9-13.7,30.6-30.6,30.6c-16.9,0-30.6-13.7-30.6-30.6s13.7-30.6,30.6-30.6
	C568.8-91.5,582.6-77.7,582.6-60.8z"/>
</svg>
